<svg version="1.1" id="Layer_1" xmlns="http://www.w3.org/2000/svg" xmlns:xlink="http://www.w3.org/1999/xlink" x="0px" y="0px"
	 width="100%" viewBox="0 0 2816 1536" enable-background="new 0 0 2816 1536" xml:space="preserve">
<path fill="none" opacity="1.000000" stroke="#000000" stroke-linecap="round" stroke-linejoin="round" stroke-width="4.000000"
	d="
M1730.000000,1249.000000 
	C1728.672852,1240.616943 1732.065186,1234.731323 1738.957153,1229.938477 
	C1795.633301,1190.524414 1843.137695,1141.881836 1881.865723,1084.908691 
	C1914.667969,1036.653198 1938.976562,984.213257 1955.036255,928.010376 
	C1963.474243,898.480286 1969.262939,868.520691 1973.299805,838.039673 
	C1976.920898,810.698853 1977.312012,783.390259 1976.906250,756.001404 
	C1976.406860,722.289246 1971.822144,689.109741 1965.364380,655.929077 
	C1955.868042,607.136902 1939.142944,561.146606 1916.899536,517.050659 
	C1886.868652,457.516510 1846.917603,405.470062 1798.139648,359.850677 
	C1753.106934,317.733826 1702.763306,283.766541 1646.901123,258.216125 
	C1610.758423,241.684982 1573.232788,228.667328 1534.022949,220.884354 
	C1511.818359,216.476852 1489.555176,213.193542 1467.036621,210.672562 
	C1433.981323,206.971970 1400.944336,206.562988 1368.018311,209.226349 
	C1280.184204,216.331177 1197.876831,241.693665 1122.001221,287.002136 
	C1070.371338,317.832520 1024.877686,356.239624 985.169373,401.149780 
	C943.221375,448.593109 910.789795,502.210266 886.965088,560.985840 
	C872.661499,596.272705 862.027466,632.735291 855.314819,670.056641 
	C847.486145,713.583069 844.664001,757.806458 847.228821,801.986694 
	C850.597595,860.014221 862.477112,916.587952 883.198181,970.924438 
	C899.866455,1014.633362 921.494995,1055.954468 949.006165,1093.995483 
	C950.959229,1096.696045 953.109436,1099.259277 954.975342,1102.016724 
	C958.052307,1106.563843 956.513733,1110.198486 953.097351,1114.085571 
	C948.744873,1119.037964 943.079834,1117.619507 940.251160,1114.752197 
	C930.756592,1105.128540 920.436829,1095.440063 915.517639,1082.798584 
	C912.993225,1076.311157 912.653320,1068.602539 906.851929,1064.194946 
	C901.004822,1059.752808 897.023254,1054.084595 894.154968,1047.927856 
	C881.105347,1019.917053 866.561768,992.573486 856.899902,963.032715 
	C849.365845,939.997559 843.054871,916.730408 837.730652,893.060608 
	C830.891479,862.655396 826.972168,832.042603 824.802917,801.013794 
	C823.213379,778.276794 824.205627,755.612549 825.326111,733.016174 
	C826.322449,712.923584 828.318420,692.789429 832.581299,672.910217 
	C833.930542,666.618530 835.862244,659.819580 835.000000,653.000000 
"/>
<path fill="none" opacity="1.000000" stroke="#000000" stroke-linecap="round" stroke-linejoin="round" stroke-width="3.000000"
	d="
M1205.000000,1094.000000 
	C1222.625366,1101.439941 1238.418335,1112.299927 1255.821167,1120.384888 
	C1300.144409,1140.976562 1346.452759,1151.701294 1394.999756,1154.005371 
	C1451.213013,1156.673462 1504.953247,1146.904663 1557.095947,1125.230835 
	C1639.277466,1091.071411 1701.009033,1034.393188 1744.771484,957.869263 
	C1766.361816,920.115662 1780.154297,879.314697 1787.256226,836.042053 
	C1796.446045,780.047058 1792.652344,725.522217 1777.344482,670.903442 
	C1762.067993,616.396912 1735.148071,568.925110 1699.048096,525.959534 
	C1664.398438,484.719818 1622.401978,453.099487 1573.951294,430.102600 
	C1531.282959,409.850311 1486.273926,398.122650 1439.005493,394.918976 
	C1385.059448,391.262665 1332.816895,398.347321 1281.965210,416.904816 
	C1239.082642,432.554169 1200.653442,455.350525 1165.927612,484.914978 
	C1131.204590,514.477051 1103.523193,549.439697 1080.821289,588.897156 
	C1060.588135,624.063599 1047.117065,661.498718 1039.076050,701.015442 
	C1033.444092,728.693298 1031.251587,756.772339 1032.052368,784.998535 
	C1033.925781,851.021118 1051.593018,912.494385 1086.022705,968.986145 
	C1097.473633,987.774658 1110.794434,1005.141296 1124.775146,1022.184509 
	C1144.540039,1046.279175 1168.637939,1065.186157 1192.965088,1084.044922 
	C1196.868408,1087.070801 1201.772705,1089.083374 1204.000000,1094.000000 
"/>
<path fill="none" opacity="1.000000" stroke="#000000" stroke-linecap="round" stroke-linejoin="round" stroke-width="3.000000"
	d="
M1743.000000,988.000000 
	C1754.598511,969.686035 1769.959961,953.843018 1776.213135,932.061157 
	C1783.975586,905.021667 1798.599976,880.124146 1802.803589,851.970642 
	C1805.181641,836.044373 1808.115112,820.158508 1809.066895,804.003967 
	C1810.544434,778.925049 1809.803589,753.984680 1807.129517,728.986145 
	C1803.673340,696.677917 1796.532471,665.142517 1784.757812,635.094910 
	C1746.154541,536.582581 1679.774536,462.472626 1584.877808,415.245636 
	C1539.790649,392.807343 1491.449219,380.418884 1441.000732,376.989960 
	C1355.025024,371.146393 1275.222656,390.617157 1202.051636,436.083038 
	C1146.442261,470.636719 1102.551270,516.966553 1069.088013,573.052490 
	C1043.957642,615.172180 1027.447632,660.853638 1019.351501,709.059021 
	C1013.534912,743.692017 1012.999878,778.793213 1016.718262,814.029724 
	C1020.046814,845.571899 1026.067383,876.305603 1037.103027,905.961670 
	C1044.338989,925.406738 1052.588257,944.474731 1062.067017,962.965637 
	C1062.545776,963.899536 1062.914673,964.804504 1063.059448,964.933167 
	C1078.528076,978.679871 1083.511841,999.300537 1095.955444,1015.035217 
	C1102.989868,1023.929932 1114.271240,1027.865112 1120.937012,1037.045776 
	C1121.831055,1038.277100 1124.092163,1037.280884 1124.108398,1039.999390 
	C1124.181519,1052.259766 1133.496094,1058.085815 1142.101074,1063.849121 
	C1147.587769,1067.523926 1151.048950,1072.954834 1155.756348,1077.266113 
	C1166.488281,1087.094849 1181.006348,1089.931641 1192.071777,1098.911621 
	C1200.355347,1105.633911 1208.915283,1112.244751 1217.409912,1118.437744 
	C1231.670288,1128.834106 1247.200195,1138.237427 1265.973999,1140.243042 
	C1278.432861,1141.573975 1289.791260,1147.905762 1301.898071,1151.357666 
	C1324.631714,1157.839722 1347.420532,1162.694702 1370.966431,1165.303467 
	C1395.024536,1167.968872 1419.074463,1168.237183 1442.979004,1166.678589 
	C1478.633789,1164.353760 1513.385620,1156.324341 1546.984253,1143.957275 
	C1580.130737,1131.756958 1611.031250,1115.152588 1639.964722,1094.949585 
	C1652.861572,1085.944214 1664.742310,1075.594360 1677.746094,1066.631592 
	C1685.466187,1061.310425 1690.884033,1052.507935 1696.950317,1044.960205 
	C1706.769409,1032.743042 1719.402222,1023.409912 1730.056030,1012.052551 
	C1734.890747,1006.898499 1737.977051,1000.628357 1741.813354,994.875549 
	C1744.650879,990.620361 1743.706787,986.516602 1737.000000,987.000000 
"/>
<path fill="none" opacity="1.000000" stroke="#000000" stroke-linecap="round" stroke-linejoin="round" stroke-width="3.000000"
	d="
M1310.000000,1015.000000 
	C1312.582397,1023.369385 1319.161011,1025.264526 1326.933472,1027.259277 
	C1344.480103,1031.762329 1360.168457,1042.515137 1378.999634,1043.012451 
	C1385.431396,1043.182251 1391.360229,1044.310303 1398.227661,1041.570801 
	C1404.841797,1038.932373 1413.438721,1040.178589 1420.981323,1041.145630 
	C1450.022095,1044.868896 1476.393799,1034.871094 1502.983154,1025.949829 
	C1517.311401,1021.142334 1532.516968,1018.699951 1545.058594,1009.076355 
	C1562.827393,995.441772 1581.862549,983.330627 1598.756104,968.718079 
	C1615.475586,954.256226 1629.641846,937.215637 1642.267090,918.681885 
	C1662.850708,888.465576 1676.399536,855.475830 1682.562500,819.924133 
	C1686.590454,796.688904 1687.536011,773.071655 1685.587158,748.952576 
	C1681.208862,694.766785 1662.774414,646.646851 1629.872681,604.098450 
	C1583.454468,544.070374 1521.840332,508.052338 1446.940430,498.465271 
	C1359.711670,487.300049 1283.778564,514.248535 1219.989502,574.988953 
	C1196.611084,597.249939 1178.335571,623.375671 1164.231812,652.113770 
	C1150.523315,680.046387 1142.138184,709.701477 1138.658325,740.961975 
	C1136.150391,763.490479 1136.303955,785.812744 1139.293701,807.960327 
	C1142.506470,831.760132 1149.238525,854.811340 1158.853760,877.063171 
	C1172.080322,907.672241 1189.485718,935.304443 1213.025146,958.975037 
	C1215.805908,961.771362 1218.079712,965.641663 1223.000732,965.005432 
	C1223.328613,964.963013 1223.666626,965.000000 1224.000000,965.000000 
	C1223.833374,964.333313 1223.666626,963.666687 1223.500000,963.000000 
"/>
<path fill="none" opacity="1.000000" stroke="#000000" stroke-linecap="round" stroke-linejoin="round" stroke-width="5.000000"
	d="
M1506.000000,909.000000 
	C1515.158936,905.695801 1521.961426,900.031616 1528.246704,892.197937 
	C1553.207397,861.087219 1567.885620,825.472290 1575.785889,786.956116 
	C1579.952759,766.641846 1580.686279,745.751465 1580.912354,724.999023 
	C1581.199219,698.666382 1581.145264,672.328735 1580.145508,645.994446 
	C1579.868042,638.686035 1577.304688,636.196106 1570.006348,635.861633 
	C1511.716431,633.190125 1459.223755,615.219238 1415.035522,575.959961 
	C1414.041870,575.077087 1413.134033,574.931152 1410.416870,575.138367 
	C1395.966919,588.321899 1378.903198,600.011414 1360.023926,609.049988 
	C1332.700684,622.131104 1304.332397,631.110474 1274.033081,634.312500 
	C1266.340088,635.125427 1258.709961,636.041748 1251.000732,635.939941 
	C1245.282715,635.864441 1242.924683,638.284546 1242.950439,644.000244 
	C1243.122192,682.002075 1240.972168,720.156250 1244.368774,757.966858 
	C1250.002930,820.687988 1273.081299,875.957214 1320.971069,919.032166 
	C1328.878418,926.144409 1336.348267,933.639587 1344.771362,940.289551 
	C1354.026611,947.596436 1363.307739,951.743469 1375.000000,950.000000 
"/>
<path fill="none" opacity="1.000000" stroke="#000000" stroke-linecap="round" stroke-linejoin="round" stroke-width="12.000000"
	d="
M1436.000000,958.000000 
	C1446.806763,952.543396 1457.473022,947.146790 1466.273682,938.271423 
	C1469.585938,934.931152 1476.000122,934.667175 1480.999878,932.999756 
	C1497.079224,927.637634 1505.000000,916.416443 1505.000000,899.000000 
"/>
<path fill="none" opacity="1.000000" stroke="#000000" stroke-linecap="round" stroke-linejoin="round" stroke-width="9.000000"
	d="
M1725.000000,1253.000000 
	C1717.435425,1248.246338 1710.265015,1249.411011 1702.978271,1253.965332 
	C1653.024414,1285.187134 1598.634399,1306.105347 1541.895874,1320.592163 
	C1520.480225,1326.060303 1498.207520,1328.748779 1476.035645,1331.308350 
	C1448.705078,1334.463379 1421.387939,1335.722290 1394.005493,1334.832275 
	C1369.528564,1334.036743 1345.227051,1331.191284 1320.952637,1327.295044 
	C1288.901245,1322.150635 1257.583496,1314.495361 1227.048828,1303.859863 
	C1188.428833,1290.407959 1151.445801,1273.294312 1116.970337,1251.046021 
	C1110.254761,1246.712402 1103.129639,1243.361572 1094.991699,1247.985352 
	C1090.194458,1250.710938 1085.760986,1248.291626 1082.069092,1245.893677 
	C1059.308105,1231.110840 1038.010742,1214.453247 1019.044678,1194.956543 
	C1018.061218,1193.945557 1017.725891,1192.304199 1016.816284,1190.379517 
	C1020.828552,1181.974609 1027.708740,1183.491821 1032.838013,1188.177368 
	C1050.378540,1204.200195 1069.564087,1218.130493 1088.127930,1232.838623 
	C1091.131714,1235.218506 1094.279419,1238.164307 1093.728271,1240.946167 
	C1090.821045,1255.618896 1102.477783,1260.606812 1111.170044,1265.710327 
	C1147.407837,1286.986694 1184.998413,1305.695557 1225.018921,1318.942871 
	C1262.796875,1331.447876 1301.262085,1340.799438 1340.970703,1345.261230 
	C1361.311279,1347.546631 1381.677612,1347.837036 1401.963135,1349.460449 
	C1419.805908,1350.888062 1437.501831,1349.661499 1454.966309,1348.495361 
	C1496.366211,1345.731201 1537.119751,1338.135132 1577.038818,1326.128906 
	C1624.642822,1311.811279 1670.075928,1292.487183 1711.634644,1265.438599 
	C1724.324585,1257.179443 1737.603271,1249.631470 1749.848022,1240.789551 
	C1790.445435,1211.473511 1827.466675,1178.246216 1859.308594,1139.251953 
	C1867.830933,1128.815430 1875.068970,1116.962769 1887.645630,1109.409912 
	C1893.963745,1105.615723 1897.515625,1096.466187 1900.318237,1088.106689 
	C1905.382080,1073.002441 1913.866455,1059.414795 1924.011353,1047.009277 
	C1925.834717,1044.779663 1928.929199,1043.473267 1929.000000,1040.000000 
"/>
<path fill="none" opacity="1.000000" stroke="#000000" stroke-linecap="round" stroke-linejoin="round" stroke-width="5.000000"
	d="
M1412.000000,617.000000 
	C1400.686035,620.347839 1392.423950,628.966736 1382.108887,634.213989 
	C1353.214355,648.912537 1323.242188,659.591370 1291.062134,664.414307 
	C1286.520020,665.094971 1281.381592,664.669861 1276.798584,667.107117 
	C1274.467773,686.268982 1274.213867,705.695435 1275.299194,724.983154 
	C1276.048950,738.306091 1275.945435,751.665283 1277.754150,765.033264 
	C1283.572388,808.039062 1298.261230,846.822815 1326.902710,880.083740 
	C1348.546753,905.218567 1374.761841,923.944519 1403.934204,939.126526 
	C1410.053467,942.311218 1414.985107,942.413269 1421.061890,939.113953 
	C1444.166748,926.569031 1466.377563,912.486267 1484.812134,893.814514 
	C1516.839722,861.374573 1536.925659,822.666931 1544.296509,777.047913 
	C1550.062256,741.363281 1546.765137,705.670349 1547.953125,669.998413 
	C1547.985840,669.012512 1547.323364,668.003479 1546.893555,666.735596 
	C1519.645752,662.619202 1492.603760,656.999329 1467.011841,645.972412 
	C1450.246582,638.748474 1433.899902,630.667297 1419.077515,619.893372 
	C1417.114746,618.466675 1415.055664,617.888611 1413.000000,617.000000 
"/>
<path fill="none" opacity="1.000000" stroke="#000000" stroke-linecap="round" stroke-linejoin="round" stroke-width="3.000000"
	d="
M1969.000000,581.000000 
	C1977.443848,607.963562 1984.962036,635.150269 1990.057739,662.989441 
	C1994.482666,687.163635 1997.415894,711.489441 1999.011841,735.999207 
	C2000.901978,765.028687 2000.752930,794.064392 1997.872803,822.987305 
	C1995.428345,847.536377 1991.664795,871.950500 1985.950684,895.988281 
	C1982.211792,911.716980 1978.298706,927.421082 1973.745605,942.925354 
	C1972.842896,945.999512 1972.692017,950.794678 1968.000000,952.000000 
"/>
<path fill="none" opacity="1.000000" stroke="#000000" stroke-linecap="round" stroke-linejoin="round" stroke-width="5.000000"
	d="
M1509.000000,726.000000 
	C1503.922363,735.948120 1494.947021,742.787048 1487.656860,750.683228 
	C1456.291748,784.655334 1426.145874,819.748840 1394.315430,853.477295 
	C1387.628174,851.208435 1385.336914,844.966248 1381.110962,840.885071 
	C1364.837280,825.168518 1349.149048,808.846375 1332.911743,793.090942 
	C1327.844727,788.174255 1327.642700,784.641907 1332.927856,779.919312 
	C1339.074829,774.426880 1344.675537,768.323181 1351.998169,760.999939 
	C1365.793213,774.793945 1379.158936,788.158813 1393.391235,802.390137 
	C1424.059082,768.697571 1454.221313,735.560608 1484.654297,702.126099 
	C1494.953003,708.202759 1501.908936,716.675110 1509.000000,725.000000 
"/>
<path fill="none" opacity="1.000000" stroke="#000000" stroke-linecap="round" stroke-linejoin="round" stroke-width="5.000000"
	d="
M1338.000000,293.000000 
	C1332.374023,278.069153 1323.239380,275.513885 1305.953003,282.889771 
	C1292.357056,288.691010 1286.978149,299.514679 1287.223511,312.995941 
	C1287.490967,327.696350 1292.590088,341.446991 1306.159424,348.701904 
	C1318.095947,355.083862 1330.581909,354.162689 1342.164429,345.212769 
	C1346.846802,341.594696 1348.921143,338.564789 1347.049072,332.983521 
	C1346.373413,330.969086 1347.257202,328.931763 1348.000000,327.000000 
"/>
<path fill="none" opacity="1.000000" stroke="#000000" stroke-linecap="round" stroke-linejoin="round" stroke-width="5.000000"
	d="
M977.000000,666.000000 
	C984.439087,668.907471 991.223328,672.398621 990.997192,681.999939 
	C990.692871,694.923096 987.262390,706.006714 975.050720,713.087463 
	C960.618530,721.455811 946.290222,719.228516 933.165039,711.711792 
	C920.801331,704.631165 916.469055,692.201721 918.007690,678.000854 
	C919.149719,667.459961 925.609375,661.429810 935.998352,660.963806 
	C937.676636,660.888489 939.333313,660.333313 941.000000,660.000000 
"/>
<path fill="none" opacity="1.000000" stroke="#000000" stroke-linecap="round" stroke-linejoin="round" stroke-width="6.000000"
	d="
M1892.000000,873.000000 
	C1896.802002,864.318359 1896.114380,856.411438 1890.000000,850.000000 
	C1885.503784,845.285400 1869.287720,842.166870 1864.000000,844.999878 
	C1857.496948,848.484192 1853.762695,858.027527 1855.088989,868.717468 
	C1866.499634,869.525452 1877.492310,873.550598 1889.004761,874.961304 
	C1894.695312,875.658630 1890.202026,881.065674 1893.000000,883.000000 
"/>
<path fill="none" opacity="1.000000" stroke="#000000" stroke-linecap="round" stroke-linejoin="round" stroke-width="3.000000"
	d="
M1484.000000,474.000000 
	C1490.078857,481.830048 1499.331909,484.914459 1508.000000,482.000000 
	C1517.637207,478.759766 1523.849731,470.605774 1524.000000,461.000000 
	C1524.217163,447.118195 1519.882812,442.300293 1509.242554,436.551056 
	C1503.368774,433.377228 1498.144897,439.710785 1493.500000,435.000000 
"/>
<path fill="none" opacity="1.000000" stroke="#000000" stroke-linecap="round" stroke-linejoin="round" stroke-width="3.000000"
	d="
M1677.000000,1147.000000 
	C1669.875244,1142.258057 1665.004272,1142.950195 1659.948975,1148.957031 
	C1657.317871,1152.083374 1657.259155,1155.879883 1658.248047,1158.919312 
	C1659.379272,1162.395630 1663.024170,1163.436890 1667.008057,1163.093140 
	C1671.640259,1162.693604 1676.342773,1162.810913 1680.997925,1163.042236 
	C1688.841431,1163.432129 1692.228271,1170.329346 1688.000000,1177.000000 
	C1683.267944,1184.465576 1676.310425,1185.790771 1667.000000,1181.000000 
"/>
<path fill="none" opacity="1.000000" stroke="#000000" stroke-linecap="round" stroke-linejoin="round" stroke-width="5.000000"
	d="
M1183.000000,1167.000000 
	C1184.740356,1159.463135 1181.437256,1154.050537 1174.936401,1151.142090 
	C1168.254639,1148.152466 1161.138306,1147.798950 1155.016602,1153.019409 
	C1139.666260,1166.109863 1140.376099,1178.138062 1151.173950,1187.805664 
	C1154.557007,1190.834595 1160.314087,1194.799927 1164.759766,1190.737183 
	C1168.841553,1187.006958 1173.927368,1181.632202 1168.000000,1175.000000 
"/>
<path fill="none" opacity="1.000000" stroke="#000000" stroke-linecap="round" stroke-linejoin="round" stroke-width="5.000000"
	d="
M1077.000000,422.000000 
	C1062.704468,412.156250 1046.097168,419.998535 1041.000000,439.000000 
	C1036.567993,455.521912 1047.998657,476.478180 1065.000000,483.000031 
	C1084.129272,490.338135 1099.270508,484.251038 1109.317505,466.176483 
	C1110.577759,463.908997 1108.890869,457.811218 1115.000000,459.000000 
"/>
<path fill="none" opacity="1.000000" stroke="#000000" stroke-linecap="round" stroke-linejoin="round" stroke-width="4.000000"
	d="
M1164.000000,540.000000 
	C1155.112427,535.528076 1146.917480,539.820801 1143.000122,551.000061 
	C1139.189941,561.873840 1147.457886,576.950928 1160.000000,582.000000 
	C1170.491089,586.223328 1182.826416,580.832031 1188.048828,570.023560 
	C1190.633301,564.674561 1189.500488,559.855530 1187.000000,555.000000 
"/>
<path fill="none" opacity="1.000000" stroke="#000000" stroke-linecap="round" stroke-linejoin="round" stroke-width="5.000000"
	d="
M1879.000000,644.000000 
	C1884.913818,641.009705 1893.120972,639.635864 1892.810425,631.006836 
	C1892.400879,619.629456 1889.567383,609.031799 1879.056274,601.916809 
	C1866.928711,593.707336 1849.818359,593.619995 1836.037354,603.054565 
	C1819.559326,614.335571 1818.187256,624.471191 1821.114014,639.978455 
	C1823.217896,651.125549 1832.369873,657.744385 1843.000000,657.000000 
"/>
<path fill="none" opacity="1.000000" stroke="#000000" stroke-linecap="round" stroke-linejoin="round" stroke-width="7.000000"
	d="
M1369.000000,424.000000 
	C1375.714844,425.213837 1377.656616,428.744537 1378.465454,435.947723 
	C1379.669678,446.670258 1379.727661,457.308685 1380.001343,467.193695 
	C1388.500000,474.010925 1397.000000,470.018860 1405.579956,467.909546 
	C1406.200073,464.962982 1408.398193,462.342072 1408.000000,459.000000 
"/>
<path fill="none" opacity="1.000000" stroke="#000000" stroke-linecap="round" stroke-linejoin="round" stroke-width="9.000000"
	d="
M1572.000000,302.000000 
	C1587.113037,299.955719 1604.919312,308.816101 1608.924438,321.024780 
	C1615.669800,341.586365 1607.850342,359.863464 1593.054321,368.097595 
	C1579.982788,375.372040 1562.814819,372.851257 1551.843384,362.160675 
	C1547.870239,358.289093 1549.400391,355.628540 1550.966675,351.985687 
	C1557.642212,336.459381 1562.302612,320.122498 1569.887817,304.943970 
	C1570.684448,303.349884 1571.815552,300.820923 1569.500000,299.000000 
"/>
<path fill="none" opacity="1.000000" stroke="#000000" stroke-linecap="round" stroke-linejoin="round" stroke-width="5.000000"
	d="
M1897.000000,720.000000 
	C1901.483276,719.525574 1904.276489,715.517578 1909.083862,714.360046 
	C1908.739624,705.894836 1908.573608,697.290222 1905.938232,689.019653 
	C1904.152222,683.414368 1900.623413,679.901550 1893.995728,680.973267 
	C1877.008667,683.719971 1859.985718,686.246948 1843.009033,689.054810 
	C1838.184692,689.852722 1837.024902,694.602051 1837.256104,697.982483 
	C1837.761475,705.372437 1839.265381,712.769226 1841.106812,719.972717 
	C1843.176270,728.069153 1850.303467,728.423584 1857.000000,729.000000 
"/>
<path fill="none" opacity="1.000000" stroke="#000000" stroke-linecap="round" stroke-linejoin="round" stroke-width="4.000000"
	d="
M957.000000,1111.000000 
	C960.797607,1110.857178 962.749390,1112.971558 965.144470,1115.881104 
	C981.499634,1135.748901 997.605774,1155.901855 1017.076721,1172.912231 
	C1021.114319,1176.439575 1021.139465,1180.509033 1021.000000,1185.000000 
"/>
<path fill="none" opacity="1.000000" stroke="#000000" stroke-linecap="round" stroke-linejoin="round" stroke-width="9.000000"
	d="
M950.000000,1118.000000 
	C956.409424,1131.942871 968.086914,1141.955933 977.256348,1153.801636 
	C985.718750,1164.733765 996.379944,1173.955566 1005.973022,1184.025757 
	C1009.034546,1187.239502 1012.502563,1189.161011 1017.000000,1189.000000 
"/>
<path fill="none" opacity="1.000000" stroke="#000000" stroke-linecap="round" stroke-linejoin="round" stroke-width="4.000000"
	d="
M1827.000000,970.000000 
	C1824.171753,970.959045 1821.957031,967.010193 1818.910889,969.712646 
	C1810.588745,980.765503 1810.588867,988.197571 1819.000000,997.000000 
	C1825.420654,1003.719116 1836.140503,1005.952576 1843.000000,1002.000122 
	C1852.920898,996.283630 1855.032715,990.211914 1851.000000,979.000000 
"/>
<path fill="none" opacity="1.000000" stroke="#000000" stroke-linecap="round" stroke-linejoin="round" stroke-width="4.000000"
	d="
M1605.000000,1189.000000 
	C1599.615479,1182.794067 1593.106201,1183.238281 1587.081421,1187.126221 
	C1579.134644,1192.254639 1576.693481,1203.727539 1581.007935,1211.995850 
	C1587.331909,1224.115234 1601.947021,1230.390747 1612.159302,1219.144653 
	C1614.773193,1216.265991 1613.787720,1213.780273 1614.000000,1211.000000 
"/>
<path fill="none" opacity="1.000000" stroke="#000000" stroke-linecap="round" stroke-linejoin="round" stroke-width="9.000000"
	d="
M1171.000000,379.000000 
	C1170.612549,374.824310 1171.431396,371.011139 1172.778198,366.926880 
	C1175.050293,360.036438 1173.819092,352.369385 1167.791504,348.309448 
	C1162.201416,344.544189 1154.883545,343.100098 1147.997803,346.996124 
	C1145.010986,348.686035 1141.890747,350.165375 1139.020386,352.031464 
	C1130.279297,357.714172 1129.537964,361.152679 1135.007080,369.995605 
	C1142.645752,382.346252 1150.361084,394.649536 1157.991943,407.005005 
	C1165.166138,418.620850 1165.109863,418.835022 1155.000000,429.000000 
"/>
<path fill="none" opacity="1.000000" stroke="#000000" stroke-linecap="round" stroke-linejoin="round" stroke-width="7.000000"
	d="
M1263.000000,466.000000 
	C1257.568604,461.666138 1252.452515,461.552338 1245.857910,464.702423 
	C1239.359985,467.806183 1238.547974,472.878723 1239.293213,477.956970 
	C1240.033569,483.002686 1244.526001,485.861694 1250.000366,485.984375 
	C1253.665161,486.066528 1257.333740,486.032623 1260.999878,485.992737 
	C1267.244629,485.924774 1272.905884,485.233673 1275.303955,493.916077 
	C1277.718018,502.656464 1271.447998,505.050018 1266.840088,507.724487 
	C1261.564697,510.786499 1254.913330,513.069702 1250.000000,506.000000 
"/>
<path fill="none" opacity="1.000000" stroke="#000000" stroke-linecap="round" stroke-linejoin="round" stroke-width="9.000000"
	d="
M945.000000,587.000000 
	C944.543762,579.093933 952.021362,577.421509 955.466125,573.595093 
	C975.897644,574.786682 995.243103,581.333801 1015.496765,579.952576 
	C1018.398010,579.754639 1019.792358,582.088806 1022.000000,583.000000 
"/>
<path fill="none" opacity="1.000000" stroke="#000000" stroke-linecap="round" stroke-linejoin="round" stroke-width="9.000000"
	d="
M941.000000,620.000000 
	C958.000000,625.666687 974.981506,631.389832 992.009949,636.969666 
	C998.062866,638.953186 999.589233,643.325439 998.977295,648.997559 
	C998.747253,651.129700 999.257141,653.068237 1000.000000,655.000000 
"/>
<path fill="none" opacity="1.000000" stroke="#000000" stroke-linecap="round" stroke-linejoin="round" stroke-width="9.000000"
	d="
M1855.000000,533.000000 
	C1857.294189,545.163025 1856.236450,547.658752 1845.991211,552.982971 
	C1833.027710,559.719971 1819.904175,566.154724 1807.031860,573.059326 
	C1797.569824,578.134705 1797.186279,579.919312 1801.000000,591.000000 
"/>
<path fill="none" opacity="1.000000" stroke="#000000" stroke-linecap="round" stroke-linejoin="round" stroke-width="6.000000"
	d="
M1590.000000,483.000000 
	C1591.054199,477.361603 1590.849976,472.936829 1585.189819,468.743774 
	C1577.671265,463.173920 1569.996460,463.007538 1562.045532,465.167786 
	C1555.065308,467.064270 1546.102783,481.402557 1546.000000,489.000000 
	C1545.887207,497.344482 1552.253906,506.353851 1561.009033,509.978088 
	C1566.641235,512.309509 1571.961060,512.843140 1574.980469,505.991425 
	C1577.358276,500.595490 1580.943237,497.886505 1587.000000,500.000000 
"/>
<path fill="none" opacity="1.000000" stroke="#000000" stroke-linecap="round" stroke-linejoin="round" stroke-width="5.000000"
	d="
M1271.000000,347.000000 
	C1273.679932,362.856384 1264.704468,369.394745 1251.074097,373.261169 
	C1246.707642,374.499756 1242.191406,377.464783 1238.112915,375.734009 
	C1232.623901,373.404633 1232.138062,377.609497 1230.000000,380.000000 
"/>
<path fill="none" opacity="1.000000" stroke="#000000" stroke-linecap="round" stroke-linejoin="round" stroke-width="5.000000"
	d="
M977.000000,528.000000 
	C990.498840,540.255188 1001.370605,554.937439 1013.918579,568.077759 
	C1016.650269,570.938354 1016.022339,575.208069 1016.000000,579.000000 
"/>
<path fill="none" opacity="1.000000" stroke="#000000" stroke-linecap="round" stroke-linejoin="round" stroke-width="4.000000"
	d="
M984.000000,911.000000 
	C987.491943,916.686096 990.060974,922.596313 985.947083,928.965820 
	C982.879822,933.714783 977.508911,934.017456 973.054810,932.799500 
	C964.383301,930.428284 962.915100,922.681519 962.000000,915.000000 
"/>
<path fill="none" opacity="1.000000" stroke="#000000" stroke-linecap="round" stroke-linejoin="round" stroke-width="4.000000"
	d="
M1225.000000,967.000000 
	C1230.991577,979.265503 1243.239624,984.773621 1252.915649,993.098083 
	C1258.921265,998.264954 1265.345581,1002.129333 1273.000000,1004.000000 
"/>
<path fill="none" opacity="1.000000" stroke="#000000" stroke-linecap="round" stroke-linejoin="round" stroke-width="9.000000"
	d="
M1817.000000,472.000000 
	C1819.960938,480.917725 1816.159058,487.167542 1808.992065,491.988220 
	C1798.022461,499.366669 1786.944946,506.585876 1776.016113,514.023682 
	C1765.934692,520.884705 1765.219482,523.296753 1769.000000,535.000000 
"/>
<path fill="none" opacity="1.000000" stroke="#000000" stroke-linecap="round" stroke-linejoin="round" stroke-width="5.000000"
	d="
M1116.000000,1105.000000 
	C1117.530029,1109.242676 1118.615845,1113.136475 1123.906250,1115.236084 
	C1132.324951,1118.577515 1137.017944,1125.354858 1135.987183,1134.998657 
	C1134.960083,1144.607422 1129.577026,1151.397949 1120.936401,1154.840210 
	C1112.971802,1158.013062 1105.979858,1154.931152 1099.946777,1149.054688 
	C1096.167603,1145.373535 1093.222412,1140.271362 1087.000000,1140.000000 
"/>
<path fill="none" opacity="1.000000" stroke="#000000" stroke-linecap="round" stroke-linejoin="round" stroke-width="9.000000"
	d="
M1005.000000,476.000000 
	C1001.970093,488.125458 1002.761963,490.542328 1013.014343,497.980225 
	C1026.344482,507.650909 1039.778198,517.178955 1053.435669,526.960693 
	C1058.026245,526.501282 1062.222656,524.204651 1066.000000,521.000000 
"/>
<path fill="none" opacity="1.000000" stroke="#000000" stroke-linecap="round" stroke-linejoin="round" stroke-width="4.000000"
	d="
M1461.000000,435.000000 
	C1459.432007,424.698944 1452.106201,424.541260 1443.995361,424.893097 
	C1437.746826,425.164215 1434.025757,428.905975 1434.292725,433.984619 
	C1434.794189,443.527313 1432.349365,452.636810 1431.896606,461.994995 
	C1431.563721,468.879669 1434.711060,471.419983 1440.997314,470.962860 
	C1446.400269,470.569946 1451.662354,471.736450 1457.301025,472.153137 
	C1458.541138,469.084412 1459.770508,466.042175 1460.999878,462.999969 
"/>
<path fill="none" opacity="1.000000" stroke="#000000" stroke-linecap="round" stroke-linejoin="round" stroke-width="5.000000"
	d="
M1668.000000,539.000000 
	C1676.443237,540.475281 1680.647949,546.560791 1681.769653,554.034546 
	C1682.935425,561.801453 1676.661743,566.495972 1667.996460,566.071777 
	C1665.352539,565.942383 1662.666626,566.666687 1660.000000,567.000000 
"/>
<path fill="none" opacity="1.000000" stroke="#000000" stroke-linecap="round" stroke-linejoin="round" stroke-width="3.000000"
	d="
M1318.000000,444.000000 
	C1316.333740,441.999695 1314.667358,439.999390 1313.142700,438.169037 
	C1305.186401,439.101685 1297.826782,441.262451 1291.412476,447.479034 
	C1295.665039,460.106262 1300.006714,472.998138 1304.316162,485.794067 
	C1312.629883,488.764374 1319.763306,484.204926 1326.926880,480.844147 
	C1330.663208,479.091217 1328.913452,474.307373 1330.000000,471.000000 
"/>
<path fill="none" opacity="1.000000" stroke="#000000" stroke-linecap="round" stroke-linejoin="round" stroke-width="9.000000"
	d="
M1523.000000,357.000000 
	C1506.781250,350.953278 1504.887573,335.241730 1500.372803,321.874115 
	C1498.468384,316.235626 1505.504150,313.781342 1509.940918,310.908813 
	C1517.926392,305.738770 1519.666748,294.164459 1513.999878,287.000092 
	C1508.602783,280.176544 1493.325562,276.684296 1484.953491,279.877930 
	C1482.193481,280.930695 1480.485107,281.980164 1479.966064,284.994141 
	C1476.756714,303.626556 1473.446655,322.241547 1470.155396,340.944489 
	C1465.152466,339.257294 1461.081299,346.989105 1455.000000,344.000000 
"/>
<path fill="none" opacity="1.000000" stroke="#000000" stroke-linecap="round" stroke-linejoin="round" stroke-width="10.000000"
	d="
M1766.000000,413.000000 
	C1771.580811,422.509888 1769.869751,429.555298 1761.282593,437.312866 
	C1751.849365,445.834717 1741.731323,453.652863 1732.934570,462.938019 
	C1722.815796,473.618317 1722.555054,473.770569 1730.000000,487.000000 
"/>
<path fill="none" opacity="1.000000" stroke="#000000" stroke-linecap="round" stroke-linejoin="round" stroke-width="6.000000"
	d="
M1439.000000,1225.000000 
	C1439.076294,1234.043701 1439.212646,1243.015869 1440.717529,1252.047119 
	C1441.568848,1257.156250 1441.188354,1261.676270 1447.994385,1260.947510 
	C1454.230225,1260.279907 1463.039917,1264.413208 1464.000000,1253.000000 
"/>
<path fill="none" opacity="1.000000" stroke="#000000" stroke-linecap="round" stroke-linejoin="round" stroke-width="9.000000"
	d="
M1152.000000,388.000031 
	C1155.000000,386.333344 1158.232666,384.976501 1160.951050,382.934906 
	C1166.448486,378.806091 1171.535156,379.557800 1177.035889,382.941711 
	C1182.876221,386.534576 1188.752197,390.279388 1195.067505,392.832977 
	C1201.798462,395.554657 1208.675415,395.124603 1214.000000,389.000000 
"/>
<path fill="none" opacity="1.000000" stroke="#000000" stroke-linecap="round" stroke-linejoin="round" stroke-width="3.000000"
	d="
M1425.000000,1221.000000 
	C1414.396729,1223.162842 1417.367554,1233.882324 1413.078491,1240.054565 
	C1409.335938,1245.440308 1410.799927,1253.960815 1403.000000,1257.000000 
"/>
<path fill="none" opacity="1.000000" stroke="#000000" stroke-linecap="round" stroke-linejoin="round" stroke-width="6.000000"
	d="
M1374.000000,1227.000000 
	C1370.807617,1221.127075 1359.750854,1216.946289 1355.026611,1220.040649 
	C1350.504639,1223.002563 1353.021851,1228.159668 1352.379395,1232.062500 
	C1351.076904,1239.974243 1350.323975,1248.040527 1349.000000,1256.000000 
"/>
<path fill="none" opacity="1.000000" stroke="#000000" stroke-linecap="round" stroke-linejoin="round" stroke-width="4.000000"
	d="
M1285.000000,1005.000000 
	C1280.299072,1001.443298 1280.299072,1001.443298 1272.759399,1004.503540 
	C1285.471802,1014.252319 1297.297363,1023.759888 1314.000000,1023.000000 
"/>
<path fill="none" opacity="1.000000" stroke="#000000" stroke-linecap="round" stroke-linejoin="round" stroke-width="4.000000"
	d="
M1495.000000,1239.000000 
	C1495.333252,1238.000000 1495.359253,1236.627441 1496.048462,1236.058838 
	C1501.589600,1231.488037 1503.596069,1225.407104 1498.756958,1220.227051 
	C1493.859253,1214.984497 1487.000000,1214.881226 1481.000000,1220.000000 
"/>
<path fill="none" opacity="1.000000" stroke="#000000" stroke-linecap="round" stroke-linejoin="round" stroke-width="6.000000"
	d="
M1243.000000,521.000000 
	C1239.319824,525.912231 1235.003662,525.757385 1229.973999,523.048218 
	C1222.287720,518.908081 1215.045532,514.126831 1207.985718,509.019684 
	C1202.939209,505.368988 1197.372803,502.999176 1191.000000,503.000000 
"/>
<path fill="none" opacity="1.000000" stroke="#000000" stroke-linecap="round" stroke-linejoin="round" stroke-width="6.000000"
	d="
M1494.000000,438.000000 
	C1492.581421,448.332825 1487.984009,457.828827 1486.047241,468.009003 
	C1484.620483,475.509338 1479.406616,476.994812 1473.000000,477.000000 
"/>
<path fill="none" opacity="1.000000" stroke="#000000" stroke-linecap="round" stroke-linejoin="round" stroke-width="6.000000"
	d="
M1251.000000,1217.000000 
	C1253.111206,1217.037109 1253.529297,1214.785645 1255.009766,1214.018799 
	C1259.537598,1211.673462 1264.045288,1210.113403 1263.244873,1202.972534 
	C1262.407837,1195.503052 1257.173462,1194.158813 1251.999756,1192.000732 
	C1247.592285,1190.161743 1244.840332,1190.093140 1242.745117,1195.908203 
	C1239.929199,1203.723267 1237.834229,1212.019775 1232.959961,1218.971924 
	C1228.989502,1224.635132 1231.830322,1228.398193 1236.000000,1232.000000 
"/>
<path fill="none" opacity="1.000000" stroke="#000000" stroke-linecap="round" stroke-linejoin="round" stroke-width="6.000000"
	d="
M998.000000,943.000000 
	C998.798218,948.012268 996.967163,950.796387 992.104431,953.210388 
	C984.193970,957.137207 976.470581,961.384888 967.991943,963.973694 
	C962.337830,965.700073 961.407227,969.536011 964.107422,973.934021 
	C967.653076,979.709167 967.579590,990.074829 979.000000,987.000000 
"/>
<path fill="none" opacity="1.000000" stroke="#000000" stroke-linecap="round" stroke-linejoin="round" stroke-width="5.000000"
	d="
M1243.500000,300.000000 
	C1239.340210,306.327606 1231.541504,304.398712 1225.726685,307.484985 
	C1219.851196,310.603333 1214.550415,313.356659 1211.000000,319.000000 
"/>
<path fill="none" opacity="1.000000" stroke="#000000" stroke-linecap="round" stroke-linejoin="round" stroke-width="6.000000"
	d="
M1015.000000,995.000000 
	C1014.757629,1004.326111 1008.542480,1011.493652 1005.899780,1019.968750 
	C1005.050964,1022.690674 1003.726135,1025.132446 1005.000000,1028.000000 
"/>
<path fill="none" opacity="1.000000" stroke="#000000" stroke-linecap="round" stroke-linejoin="round" stroke-width="2.000000"
	d="
M1951.000000,535.000000 
	C1954.087036,546.009033 1960.394653,555.810364 1963.000000,567.000000 
"/>
<path fill="none" opacity="1.000000" stroke="#000000" stroke-linecap="round" stroke-linejoin="round" stroke-width="5.000000"
	d="
M1818.000000,486.000000 
	C1830.633789,488.522827 1833.659180,500.137177 1838.667480,509.184082 
	C1841.672363,514.612122 1833.344971,517.839111 1832.000000,523.000000 
"/>
<path fill="none" opacity="1.000000" stroke="#000000" stroke-linecap="round" stroke-linejoin="round" stroke-width="5.000000"
	d="
M1391.000000,1225.500000 
	C1393.528076,1235.606323 1396.389648,1245.669067 1401.222534,1254.883301 
	C1402.718506,1257.735474 1402.778442,1260.222046 1403.000000,1263.000000 
"/>
<path fill="none" opacity="1.000000" stroke="#000000" stroke-linecap="round" stroke-linejoin="round" stroke-width="4.000000"
	d="
M1021.000000,991.000000 
	C1006.556091,992.694031 995.423706,1001.790222 983.000000,1008.000000 
"/>
<path fill="none" opacity="1.000000" stroke="#000000" stroke-linecap="round" stroke-linejoin="round" stroke-width="6.000000"
	d="
M1620.000000,489.000000 
	C1621.369385,491.528168 1620.788574,494.787628 1623.555298,496.459167 
	C1616.630859,506.176208 1608.910645,514.297058 1602.228882,523.172302 
	C1597.753540,529.116638 1593.147095,529.774536 1587.000000,528.000000 
"/>
<path fill="none" opacity="1.000000" stroke="#000000" stroke-linecap="round" stroke-linejoin="round" stroke-width="5.000000"
	d="
M1771.000000,428.000000 
	C1783.699585,431.451874 1789.081421,442.526337 1796.588257,451.724396 
	C1794.055298,455.696838 1790.431763,458.477936 1790.000000,463.000000 
"/>
<path fill="none" opacity="1.000000" stroke="#000000" stroke-linecap="round" stroke-linejoin="round" stroke-width="6.000000"
	d="
M1666.000000,529.000000 
	C1667.714111,533.959656 1667.551147,538.038513 1663.114380,542.124207 
	C1655.080200,549.522583 1646.161621,555.790894 1637.949219,562.941650 
	C1634.294800,566.123596 1630.628662,562.750916 1627.000000,562.000000 
"/>
<path fill="none" opacity="1.000000" stroke="#000000" stroke-linecap="round" stroke-linejoin="round" stroke-width="3.000000"
	d="
M1957.000000,967.000000 
	C1953.124146,967.058838 1956.343140,962.860779 1954.000000,961.000000 
	C1958.000000,961.000000 1962.000000,961.000000 1966.457275,961.000000 
	C1961.713989,981.780945 1951.184692,998.314148 1939.022461,1014.017395 
	C1936.897095,1016.761719 1933.271973,1014.947449 1931.000000,1017.000000 
"/>
<path fill="none" opacity="1.000000" stroke="#000000" stroke-linecap="round" stroke-linejoin="round" stroke-width="4.000000"
	d="
M1373.000000,1253.000000 
	C1372.003418,1255.334839 1371.006836,1257.669556 1370.104736,1259.783325 
	C1360.280396,1261.203003 1350.826538,1254.698364 1341.000000,1259.000000 
"/>
<path fill="none" opacity="1.000000" stroke="#000000" stroke-linecap="round" stroke-linejoin="round" stroke-width="9.000000"
	d="
M1195.000000,318.000000 
	C1209.331177,317.157532 1210.917969,318.106598 1215.991333,331.003418 
	C1221.747070,345.635406 1228.400146,359.921173 1233.000000,375.000000 
"/>
<path fill="none" opacity="1.000000" stroke="#000000" stroke-linecap="round" stroke-linejoin="round" stroke-width="4.000000"
	d="
M1938.000000,1016.000000 
	C1939.865723,1023.096558 1940.056885,1029.933105 1935.006592,1036.005493 
	C1933.105225,1038.291626 1931.357666,1040.918457 1928.000000,1038.000000 
"/>
<path fill="none" opacity="1.000000" stroke="#000000" stroke-linecap="round" stroke-linejoin="round" stroke-width="5.000000"
	d="
M1063.000000,1053.000000 
	C1052.609741,1050.794067 1050.729248,1062.546631 1043.085938,1065.243408 
	C1039.581299,1066.479980 1036.830444,1070.168823 1034.042603,1073.041382 
	C1030.515015,1076.675903 1026.898193,1076.213745 1023.000000,1074.000000 
"/>
<path fill="none" opacity="1.000000" stroke="#000000" stroke-linecap="round" stroke-linejoin="round" stroke-width="6.000000"
	d="
M1118.000000,1114.000000 
	C1110.333374,1123.333374 1102.666748,1132.666748 1095.000000,1142.000000 
"/>
<path fill="none" opacity="1.000000" stroke="#000000" stroke-linecap="round" stroke-linejoin="round" stroke-width="4.000000"
	d="
M1195.000000,505.000000 
	C1191.035034,514.173279 1198.632446,520.932068 1200.046753,528.991821 
	C1201.563477,537.634766 1209.753784,545.243042 1204.000000,555.000000 
"/>
<path fill="none" opacity="1.000000" stroke="#000000" stroke-linecap="round" stroke-linejoin="round" stroke-width="5.000000"
	d="
M1760.000000,1064.000000 
	C1768.130615,1071.966919 1778.361206,1077.448120 1786.008423,1085.992432 
	C1788.156494,1088.392456 1789.387817,1085.605835 1791.000000,1085.000000 
"/>
<path fill="none" opacity="1.000000" stroke="#000000" stroke-linecap="round" stroke-linejoin="round" stroke-width="5.000000"
	d="
M1665.000000,1195.000000 
	C1659.123535,1195.962891 1654.247192,1195.029297 1649.873779,1190.112183 
	C1643.750610,1183.228027 1637.333130,1176.444702 1627.518066,1171.001953 
	C1624.924927,1185.067383 1628.956665,1197.494629 1632.000000,1210.000000 
"/>
<path fill="none" opacity="1.000000" stroke="#000000" stroke-linecap="round" stroke-linejoin="round" stroke-width="4.000000"
	d="
M1039.000000,1016.000000 
	C1036.000000,1016.001770 1033.822754,1012.496948 1029.820557,1015.781372 
	C1022.562988,1021.737366 1015.072693,1027.937744 1005.005859,1029.053101 
	C1001.674438,1029.422241 1001.257935,1033.257935 999.000000,1035.000000 
"/>
<path fill="none" opacity="1.000000" stroke="#000000" stroke-linecap="round" stroke-linejoin="round" stroke-width="5.000000"
	d="
M1681.000000,1133.000000 
	C1685.544922,1130.779663 1688.597778,1132.563232 1692.117188,1135.875488 
	C1699.467773,1142.793213 1703.382080,1152.394409 1711.000000,1159.000000 
"/>
<path fill="none" opacity="1.000000" stroke="#000000" stroke-linecap="round" stroke-linejoin="round" stroke-width="5.000000"
	d="
M1086.000000,1078.000000 
	C1088.476074,1081.452393 1086.312378,1083.577515 1084.045776,1086.042114 
	C1076.541016,1094.201904 1067.713501,1101.086548 1061.000000,1110.000000 
"/>
<path fill="none" opacity="1.000000" stroke="#000000" stroke-linecap="round" stroke-linejoin="round" stroke-width="5.000000"
	d="
M1509.000000,1211.000000 
	C1523.518555,1212.791626 1530.388550,1223.928101 1535.551025,1235.205566 
	C1538.299438,1241.209473 1540.411621,1245.678223 1547.000000,1247.000000 
"/>
<path fill="none" opacity="1.000000" stroke="#000000" stroke-linecap="round" stroke-linejoin="round" stroke-width="6.000000"
	d="
M1471.000000,1218.000000 
	C1477.639771,1218.777100 1479.084839,1222.369629 1479.347168,1228.986206 
	C1479.690430,1237.643433 1482.373413,1246.224609 1483.000000,1255.000000 
"/>
<path fill="none" opacity="1.000000" stroke="#000000" stroke-linecap="round" stroke-linejoin="round" stroke-width="4.000000"
	d="
M1891.000000,897.000000 
	C1889.745117,897.823669 1887.522827,895.212402 1886.814209,898.964905 
	C1885.622925,905.273315 1885.157471,912.098267 1880.000000,917.000000 
"/>
<path fill="none" opacity="1.000000" stroke="#000000" stroke-linecap="round" stroke-linejoin="round" stroke-width="5.000000"
	d="
M1739.000000,1089.000000 
	C1745.666748,1095.666626 1751.958130,1102.776978 1759.132324,1108.843506 
	C1763.893677,1112.869873 1763.510986,1116.470337 1761.000000,1121.000000 
"/>
<path fill="none" opacity="1.000000" stroke="#000000" stroke-linecap="round" stroke-linejoin="round" stroke-width="6.000000"
	d="
M981.000000,908.000000 
	C970.666687,911.000000 960.389404,914.216675 949.977417,916.912842 
	C944.379700,918.362427 944.034790,922.757690 943.000000,927.000000 
"/>
<path fill="none" opacity="1.000000" stroke="#000000" stroke-linecap="round" stroke-linejoin="round" stroke-width="5.000000"
	d="
M1872.000000,687.000000 
	C1872.354980,692.703308 1873.437500,698.425232 1874.434814,703.921082 
	C1875.548462,710.057251 1873.168457,712.470520 1869.000000,715.000000 
"/>
<path fill="none" opacity="1.000000" stroke="#000000" stroke-linecap="round" stroke-linejoin="round" stroke-width="5.000000"
	d="
M1837.000000,1024.000000 
	C1829.455200,1028.320068 1822.437500,1025.448486 1814.929321,1023.240479 
	C1808.240601,1021.273560 1801.497559,1017.517334 1792.958008,1020.348999 
	C1798.002563,1032.633789 1807.171143,1041.877197 1815.000000,1052.000000 
"/>
<path fill="none" opacity="1.000000" stroke="#000000" stroke-linecap="round" stroke-linejoin="round" stroke-width="2.000000"
	d="
M1684.000000,1057.000000 
	C1672.046387,1057.364624 1669.364624,1060.046387 1669.000000,1072.000000 
"/>
<path fill="none" opacity="1.000000" stroke="#000000" stroke-linecap="round" stroke-linejoin="round" stroke-width="5.000000"
	d="
M1477.000000,314.000000 
	C1485.083130,313.250763 1492.140015,316.264313 1499.000000,320.000000 
"/>
<path fill="none" opacity="1.000000" stroke="#000000" stroke-linecap="round" stroke-linejoin="round" stroke-width="4.000000"
	d="
M1460.000000,1227.000000 
	C1455.946777,1219.543701 1452.746704,1219.038452 1441.000000,1224.000000 
"/>
<path fill="none" opacity="1.000000" stroke="#000000" stroke-linecap="round" stroke-linejoin="round" stroke-width="5.000000"
	d="
M1246.000000,334.999969 
	C1238.666626,338.333313 1231.333374,341.666656 1224.000000,344.999969 
"/>
<path fill="none" opacity="1.000000" stroke="#000000" stroke-linecap="round" stroke-linejoin="round" stroke-width="3.000000"
	d="
M1597.000000,530.000000 
	C1604.602417,544.404480 1612.828247,548.223572 1625.000000,543.000000 
"/>
<path fill="none" opacity="1.000000" stroke="#000000" stroke-linecap="round" stroke-linejoin="round" stroke-width="4.000000"
	d="
M1546.000000,1202.000000 
	C1543.620728,1204.604126 1541.167603,1206.595825 1540.688232,1210.965820 
	C1540.032104,1216.946045 1537.958130,1223.002319 1534.000000,1228.000000 
"/>
<path fill="none" opacity="1.000000" stroke="#000000" stroke-linecap="round" stroke-linejoin="round" stroke-width="5.000000"
	d="
M1871.000000,943.000061 
	C1864.000000,944.333374 1857.000000,945.666748 1850.000000,947.000061 
"/>
<path fill="none" opacity="1.000000" stroke="#000000" stroke-linecap="round" stroke-linejoin="round" stroke-width="3.000000"
	d="
M1457.000000,1235.000000 
	C1457.070190,1237.245605 1454.391724,1238.574951 1455.075928,1241.295166 
	C1450.333374,1238.187134 1445.666626,1241.766724 1441.000000,1241.000000 
"/>
<path fill="none" opacity="1.000000" stroke="#000000" stroke-linecap="round" stroke-linejoin="round" stroke-width="3.000000"
	d="
M998.000000,951.000000 
	C1003.202881,954.250549 1004.708862,960.015381 1006.763550,965.095642 
	C1007.838928,967.754333 1008.594177,972.463745 1003.000000,973.000000 
"/>
<path fill="none" opacity="1.000000" stroke="#000000" stroke-linecap="round" stroke-linejoin="round" stroke-width="3.000000"
	d="
M1189.000000,1206.000000 
	C1192.679932,1212.071655 1199.936279,1212.919312 1205.241211,1216.657715 
	C1208.201782,1218.744019 1211.903076,1215.092896 1213.000000,1211.000000 
"/>
<path fill="none" opacity="1.000000" stroke="#000000" stroke-linecap="round" stroke-linejoin="round" stroke-width="5.000000"
	d="
M1784.000000,1066.500000 
	C1784.705811,1064.769043 1783.256592,1063.522705 1782.968506,1062.005981 
	C1782.001099,1056.912720 1782.695435,1050.489746 1774.997192,1050.049683 
	C1768.323975,1049.668335 1763.456909,1052.484253 1760.973999,1058.990112 
	C1759.573364,1062.660522 1757.100586,1065.305420 1753.000000,1066.000000 
"/>
<path fill="none" opacity="1.000000" stroke="#000000" stroke-linecap="round" stroke-linejoin="round" stroke-width="5.000000"
	d="
M1776.000000,1074.000000 
	C1779.475586,1067.045898 1784.827637,1066.290405 1792.060669,1067.685425 
	C1796.002808,1068.445923 1800.984375,1071.464111 1805.000000,1067.000000 
"/>
<path fill="none" opacity="1.000000" stroke="#000000" stroke-linecap="round" stroke-linejoin="round" stroke-width="3.000000"
	d="
M1624.000000,498.000000 
	C1637.076782,500.974976 1643.214233,509.030426 1640.000000,519.000000 
"/>
<path fill="none" opacity="1.000000" stroke="#000000" stroke-linecap="round" stroke-linejoin="round" stroke-width="4.000000"
	d="
M1368.000000,1243.000000 
	C1366.852905,1241.776978 1368.290039,1238.800537 1364.997925,1238.954346 
	C1360.979370,1239.142090 1356.924438,1239.240723 1353.000000,1238.000000 
"/>
<path fill="none" opacity="1.000000" stroke="#000000" stroke-linecap="round" stroke-linejoin="round" stroke-width="3.000000"
	d="
M1203.000000,1169.000000 
	C1206.446411,1175.440674 1214.065918,1173.210449 1219.184570,1176.731689 
	C1223.416870,1179.643188 1226.451904,1181.607422 1224.000000,1187.000000 
"/>
<path fill="none" opacity="1.000000" stroke="#000000" stroke-linecap="round" stroke-linejoin="round" stroke-width="6.000000"
	d="
M1240.000000,1210.000000 
	C1254.277588,1213.589844 1250.435791,1226.587769 1253.500000,1236.000000 
"/>
<path fill="none" opacity="1.000000" stroke="#000000" stroke-linecap="round" stroke-linejoin="round" stroke-width="3.000000"
	d="
M1709.000000,1121.000000 
	C1700.539917,1117.987061 1694.389404,1121.369873 1689.000000,1132.000000 
"/>
<path fill="none" opacity="1.000000" stroke="#000000" stroke-linecap="round" stroke-linejoin="round" stroke-width="5.000000"
	d="
M1823.000000,954.000000 
	C1831.672607,946.594849 1839.325317,954.560730 1846.857178,956.542847 
	C1851.394409,957.736938 1856.275024,960.800659 1861.025024,962.944580 
	C1864.977905,964.728760 1866.015015,967.202698 1864.000000,971.000000 
"/>
<path fill="none" opacity="1.000000" stroke="#000000" stroke-linecap="round" stroke-linejoin="round" stroke-width="3.000000"
	d="
M1469.000000,919.000000 
	C1468.666748,924.666687 1468.333374,930.333313 1468.000000,936.000000 
"/>
<path fill="none" opacity="1.000000" stroke="#000000" stroke-linecap="round" stroke-linejoin="round" stroke-width="6.000000"
	d="
M1654.000000,557.000000 
	C1659.954712,562.174194 1660.905273,568.453430 1656.907349,574.942871 
	C1652.469849,582.145813 1654.115967,589.525696 1655.000000,597.000000 
"/>
<path fill="none" opacity="1.000000" stroke="#000000" stroke-linecap="round" stroke-linejoin="round" stroke-width="4.000000"
	d="
M1548.000000,358.000000 
	C1542.329956,358.276306 1536.753418,360.140656 1531.000000,359.000000 
"/>
<path fill="none" opacity="1.000000" stroke="#000000" stroke-linecap="round" stroke-linejoin="round" stroke-width="3.000000"
	d="
M1377.000000,933.000000 
	C1377.333374,938.666687 1377.666626,944.333313 1378.000000,950.000000 
"/>
<path fill="none" opacity="1.000000" stroke="#000000" stroke-linecap="round" stroke-linejoin="round" stroke-width="6.000000"
	d="
M1205.000000,1174.000000 
	C1200.212402,1182.601562 1196.672363,1191.786377 1191.317139,1200.201782 
	C1187.738892,1205.824585 1184.625244,1207.233765 1179.000000,1205.000000 
"/>
<path fill="none" opacity="1.000000" stroke="#000000" stroke-linecap="round" stroke-linejoin="round" stroke-width="3.000000"
	d="
M1855.000000,887.000000 
	C1847.244873,890.149292 1842.922729,895.069946 1845.948364,904.017456 
	C1846.457153,905.522034 1846.370972,907.307251 1844.000000,907.500000 
"/>
<path fill="none" opacity="1.000000" stroke="#000000" stroke-linecap="round" stroke-linejoin="round" stroke-width="4.000000"
	d="
M1053.000000,1108.000000 
	C1063.804565,1109.561401 1065.561157,1121.678589 1076.270874,1126.085449 
	C1077.170410,1126.100220 1079.714844,1123.383545 1083.000000,1124.000000 
"/>
<path fill="none" opacity="1.000000" stroke="#000000" stroke-linecap="round" stroke-linejoin="round" stroke-width="3.000000"
	d="
M1837.000000,921.000000 
	C1833.435791,930.599121 1840.536377,937.039246 1845.414551,942.638855 
	C1849.930542,947.822754 1848.631104,950.752991 1846.000000,955.000000 
"/>
<path fill="none" opacity="1.000000" stroke="#000000" stroke-linecap="round" stroke-linejoin="round" stroke-width="4.000000"
	d="
M1031.000000,1077.000000 
	C1032.322998,1082.494385 1036.386475,1086.015137 1039.870605,1090.110107 
	C1043.684814,1094.592896 1047.137573,1092.819458 1051.000000,1091.000000 
"/>
<path fill="none" opacity="1.000000" stroke="#000000" stroke-linecap="round" stroke-linejoin="round" stroke-width="3.000000"
	d="
M1088.000000,1083.000000 
	C1095.049561,1087.901123 1103.836792,1091.672729 1101.000000,1103.000000 
"/>
<path fill="none" opacity="1.000000" stroke="#000000" stroke-linecap="round" stroke-linejoin="round" stroke-width="3.000000"
	d="
M1856.000000,548.000000 
	C1861.726929,549.782715 1865.470947,553.728699 1868.000000,559.000000 
"/>
<path fill="none" opacity="1.000000" stroke="#000000" stroke-linecap="round" stroke-linejoin="round" stroke-width="6.000000"
	d="
M1847.000000,907.000000 
	C1855.215576,911.132629 1864.489380,911.782104 1873.031982,914.912720 
	C1878.049316,916.751465 1882.288818,918.706665 1882.000000,925.000000 
"/>
<path fill="none" opacity="1.000000" stroke="#000000" stroke-linecap="round" stroke-linejoin="round" stroke-width="3.000000"
	d="
M1726.000000,1141.000000 
	C1729.244385,1148.455566 1723.925415,1151.471680 1719.063721,1155.085693 
	C1715.651367,1157.622192 1710.548096,1158.101685 1709.000000,1163.000000 
"/>
<path fill="none" opacity="1.000000" stroke="#000000" stroke-linecap="round" stroke-linejoin="round" stroke-width="3.000000"
	d="
M1218.000000,520.000000 
	C1214.848511,525.767639 1208.179321,527.431519 1204.000000,532.000000 
"/>
<path fill="none" opacity="1.000000" stroke="#000000" stroke-linecap="round" stroke-linejoin="round" stroke-width="3.000000"
	d="
M1904.000000,665.000000 
	C1905.667480,671.111389 1901.967773,675.433655 1899.000000,680.000000 
"/>
<path fill="none" opacity="1.000000" stroke="#000000" stroke-linecap="round" stroke-linejoin="round" stroke-width="2.000000"
	d="
M914.000000,1058.000000 
	C916.725281,1058.010010 917.494873,1060.640381 918.890747,1062.104248 
	C923.355957,1066.787109 921.850464,1070.594238 915.000000,1073.000000 
"/>
<path fill="none" opacity="1.000000" stroke="#000000" stroke-linecap="round" stroke-linejoin="round" stroke-width="4.000000"
	d="
M1314.000000,460.000000 
	C1309.477539,463.124176 1304.140137,463.192047 1299.000000,464.000000 
"/>
<path fill="none" opacity="1.000000" stroke="#000000" stroke-linecap="round" stroke-linejoin="round" stroke-width="3.000000"
	d="
M1130.000000,364.000000 
	C1124.923706,364.094513 1119.735107,363.346863 1115.000000,366.000000 
"/>
<path fill="none" opacity="1.000000" stroke="#000000" stroke-linecap="round" stroke-linejoin="round" stroke-width="4.000000"
	d="
M1179.000000,414.000000 
	C1174.094360,415.748932 1169.149048,416.901855 1164.000000,415.000000 
"/>
<path fill="none" opacity="1.000000" stroke="#000000" stroke-linecap="round" stroke-linejoin="round" stroke-width="3.000000"
	d="
M956.000000,557.000000 
	C956.749939,561.972229 954.971375,567.113037 957.000000,572.000000 
"/>
<path fill="none" opacity="1.000000" stroke="#000000" stroke-linecap="round" stroke-linejoin="round" stroke-width="4.000000"
	d="
M1436.000000,447.000000 
	C1441.000000,447.000000 1446.000000,447.000000 1451.000000,447.000000 
"/>
<path fill="none" opacity="1.000000" stroke="#000000" stroke-linecap="round" stroke-linejoin="round" stroke-width="3.000000"
	d="
M1003.000000,491.000000 
	C999.095398,494.890656 991.354675,493.794434 990.000000,501.000000 
"/>
<path fill="none" opacity="1.000000" stroke="#000000" stroke-linecap="round" stroke-linejoin="round" stroke-width="3.000000"
	d="
M981.000000,516.000000 
	C978.899109,518.521667 969.229126,537.055847 969.000000,539.000000 
"/>
<path fill="none" opacity="1.000000" stroke="#000000" stroke-linecap="round" stroke-linejoin="round" stroke-width="5.000000"
	d="
M1753.000000,454.000000 
	C1756.333374,457.666687 1759.850464,461.185425 1762.951538,465.039001 
	C1766.494263,469.441742 1769.666626,469.030273 1773.000000,465.000000 
"/>
<path fill="none" opacity="1.000000" stroke="#000000" stroke-linecap="round" stroke-linejoin="round" stroke-width="3.000000"
	d="
M1008.000000,627.000000 
	C1007.187927,633.025757 1002.019714,635.263489 998.000000,638.500000 
"/>
<path fill="none" opacity="1.000000" stroke="#000000" stroke-linecap="round" stroke-linejoin="round" stroke-width="3.000000"
	d="
M1817.000000,1026.000000 
	C1814.164429,1030.447144 1811.925659,1035.307495 1808.000000,1039.000000 
"/>
<path fill="none" opacity="1.000000" stroke="#000000" stroke-linecap="round" stroke-linejoin="round" stroke-width="3.000000"
	d="
M1497.000122,893.000000 
	C1496.666748,897.000000 1496.333496,901.000000 1496.000122,905.000000 
"/>
<path fill="none" opacity="1.000000" stroke="#000000" stroke-linecap="round" stroke-linejoin="round" stroke-width="3.000000"
	d="
M1317.000000,1233.000000 
	C1309.000000,1231.666748 1301.000000,1230.333374 1293.000000,1229.000000 
"/>
<path fill="none" opacity="1.000000" stroke="#000000" stroke-linecap="round" stroke-linejoin="round" stroke-width="3.000000"
	d="
M1871.000000,897.000000 
	C1862.281128,898.208252 1864.562012,905.702087 1863.000000,911.000000 
"/>
<path fill="none" opacity="1.000000" stroke="#000000" stroke-linecap="round" stroke-linejoin="round" stroke-width="3.000000"
	d="
M1643.000000,1188.000000 
	C1639.682617,1191.503540 1635.593140,1193.683472 1631.000000,1195.000000 
"/>
<path fill="none" opacity="1.000000" stroke="#000000" stroke-linecap="round" stroke-linejoin="round" stroke-width="5.000000"
	d="
M1483.000000,1239.000000 
	C1490.213745,1238.935547 1497.474609,1237.802979 1501.195679,1246.920166 
	C1503.434814,1252.406860 1510.056274,1252.818237 1515.000000,1255.000000 
"/>
<path fill="none" opacity="1.000000" stroke="#000000" stroke-linecap="round" stroke-linejoin="round" stroke-width="3.000000"
	d="
M1753.000000,1079.000000 
	C1752.333374,1079.333374 1751.890015,1078.649170 1750.962769,1078.058594 
	C1745.946045,1074.863770 1742.183716,1078.970337 1741.320557,1082.088745 
	C1739.034546,1090.346680 1722.270142,1089.868652 1729.000000,1103.000000 
"/>
<path fill="none" opacity="1.000000" stroke="#000000" stroke-linecap="round" stroke-linejoin="round" stroke-width="3.000000"
	d="
M1307.000000,1219.000000 
	C1305.333374,1227.000000 1303.666748,1235.000000 1302.000000,1243.000000 
"/>
<path fill="none" opacity="1.000000" stroke="#000000" stroke-linecap="round" stroke-linejoin="round" stroke-width="3.000000"
	d="
M1200.000000,1189.000000 
	C1203.344116,1193.295654 1213.482666,1191.363159 1211.000000,1201.000000 
"/>
<path fill="none" opacity="1.000000" stroke="#000000" stroke-linecap="round" stroke-linejoin="round" stroke-width="3.000000"
	d="
M936.000000,622.000000 
	C932.389648,623.979980 932.099609,629.695374 927.000000,630.000000 
"/>
<path fill="none" opacity="1.000000" stroke="#000000" stroke-linecap="round" stroke-linejoin="round" stroke-width="3.000000"
	d="
M982.000000,962.000000 
	C982.898193,965.426941 986.816833,966.931702 987.153870,970.987244 
	C987.455383,974.615723 990.313782,974.392090 993.000000,973.000000 
"/>
<path fill="none" opacity="1.000000" stroke="#000000" stroke-linecap="round" stroke-linejoin="round" stroke-width="2.000000"
	d="
M1948.000000,992.000000 
	C1945.350708,990.121704 1943.509033,990.565491 1940.875488,992.856812 
	C1936.140747,996.976135 1941.306519,999.040039 1942.000000,1002.000000 
"/>
<path fill="none" opacity="1.000000" stroke="#000000" stroke-linecap="round" stroke-linejoin="round" stroke-width="3.000000"
	d="
M1615.000000,516.000000 
	C1619.545044,520.102173 1623.147583,526.717468 1631.000000,522.000000 
"/>
<path fill="none" opacity="1.000000" stroke="#000000" stroke-linecap="round" stroke-linejoin="round" stroke-width="4.000000"
	d="
M1819.000000,523.000000 
	C1811.606445,521.546326 1807.233032,526.132629 1803.000000,531.000000 
"/>
<path fill="none" opacity="1.000000" stroke="#000000" stroke-linecap="round" stroke-linejoin="round" stroke-width="3.000000"
	d="
M1502.000000,911.000000 
	C1497.335938,905.924500 1492.083984,902.847595 1485.000000,906.000000 
"/>
<path fill="none" opacity="1.000000" stroke="#000000" stroke-linecap="round" stroke-linejoin="round" stroke-width="2.000000"
	d="
M1958.000000,949.000000 
	C1959.712646,955.402344 1965.580811,947.952698 1968.000000,952.000000 
"/>
<path fill="none" opacity="1.000000" stroke="#000000" stroke-linecap="round" stroke-linejoin="round" stroke-width="3.000000"
	d="
M1077.000000,1098.000000 
	C1079.000000,1100.000000 1081.658447,1101.669434 1082.862915,1104.068848 
	C1085.371460,1109.065552 1088.142578,1106.192627 1091.000000,1105.000000 
"/>
<path fill="none" opacity="1.000000" stroke="#000000" stroke-linecap="round" stroke-linejoin="round" stroke-width="2.000000"
	d="
M1135.000000,1043.000000 
	C1132.128662,1041.508423 1129.025024,1042.108154 1126.000000,1042.000000 
"/>
<path fill="none" opacity="1.000000" stroke="#000000" stroke-linecap="round" stroke-linejoin="round" stroke-width="4.000000"
	d="
M1247.000000,327.000000 
	C1244.552612,334.482483 1253.205078,338.264984 1253.000000,345.000000 
"/>
<path fill="none" opacity="1.000000" stroke="#000000" stroke-linecap="round" stroke-linejoin="round" stroke-width="2.000000"
	d="
M1495.000000,912.000000 
	C1491.041016,913.851318 1485.953247,914.699219 1487.000000,921.000000 
"/>
<path fill="none" opacity="1.000000" stroke="#000000" stroke-linecap="round" stroke-linejoin="round" stroke-width="3.000000"
	d="
M1455.000000,441.000000 
	C1451.396973,445.433105 1453.053467,450.241913 1454.000000,455.000000 
"/>
<path fill="none" opacity="1.000000" stroke="#000000" stroke-linecap="round" stroke-linejoin="round" stroke-width="2.000000"
	d="
M1771.000000,1111.000000 
	C1769.104370,1113.198730 1765.887573,1110.773071 1764.000000,1113.000000 
"/>
<path fill="none" opacity="1.000000" stroke="#000000" stroke-linecap="round" stroke-linejoin="round" stroke-width="3.000000"
	d="
M1315.000000,453.000000 
	C1314.805298,457.298676 1315.528809,461.367798 1318.000000,465.000000 
"/>
<path fill="none" opacity="1.000000" stroke="#000000" stroke-linecap="round" stroke-linejoin="round" stroke-width="2.000000"
	d="
M1179.000000,1181.000000 
	C1176.822021,1182.421143 1174.364868,1181.887573 1172.000000,1182.000000 
"/>
<path fill="none" opacity="1.000000" stroke="#000000" stroke-linecap="round" stroke-linejoin="round" stroke-width="2.000000"
	d="
M1829.000000,1028.000000 
	C1831.078491,1030.333374 1829.817139,1032.666626 1829.000000,1035.000000 
"/>
<path fill="none" opacity="1.000000" stroke="#000000" stroke-linecap="round" stroke-linejoin="round" stroke-width="2.000000"
	d="
M1366.000000,1032.000000 
	C1361.666626,1031.551880 1357.333374,1029.055298 1353.000000,1032.000000 
"/>
<path fill="none" opacity="1.000000" stroke="#000000" stroke-linecap="round" stroke-linejoin="round" stroke-width="3.000000"
	d="
M1715.000000,1137.000000 
	C1708.988647,1133.839233 1706.432251,1138.970703 1703.000000,1142.000000 
"/>
<path fill="none" opacity="1.000000" stroke="#000000" stroke-linecap="round" stroke-linejoin="round" stroke-width="2.000000"
	d="
M1877.000000,1103.000000 
	C1878.871216,1106.092407 1879.340576,1109.465210 1879.000000,1113.000000 
"/>
<path fill="none" opacity="1.000000" stroke="#000000" stroke-linecap="round" stroke-linejoin="round" stroke-width="5.000000"
	d="
M1403.000000,271.000000 
	C1384.956177,274.392181 1375.380493,282.307037 1373.086914,297.013550 
	C1369.521973,319.870422 1376.011108,332.738953 1390.139771,340.753693 
	C1407.157349,350.407196 1428.229736,340.962555 1432.917603,320.980652 
	C1435.002197,312.095093 1434.446167,302.948669 1432.926636,294.012482 
	C1430.852783,281.816650 1419.489624,273.017639 1404.000000,271.000000 
"/>
<path fill="none" opacity="1.000000" stroke="#000000" stroke-linecap="round" stroke-linejoin="round" stroke-width="6.000000"
	d="
M1407.000000,229.000000 
	C1402.114502,231.050659 1396.998047,229.848846 1391.999023,229.952408 
	C1344.223999,230.942245 1297.609253,239.103531 1252.015503,253.050537 
	C1160.347534,281.091461 1081.990234,330.945709 1016.158386,400.150665 
	C971.710571,446.875916 937.252625,500.413483 911.770386,559.901672 
	C896.781311,594.893555 885.638977,630.996338 878.438904,668.085205 
	C873.159302,695.281128 870.376465,723.025574 869.580688,750.988098 
	C868.981384,772.048401 868.912903,793.157898 870.484680,813.963379 
	C872.906616,846.020325 878.483093,877.817749 886.947510,909.014221 
	C911.482361,999.440369 955.573242,1078.681152 1020.952026,1146.046631 
	C1066.178467,1192.647339 1117.707275,1230.478149 1176.025879,1258.946899 
	C1223.308472,1282.028076 1272.943359,1297.861938 1324.992310,1306.048706 
	C1344.896362,1309.179321 1365.025757,1310.181030 1384.932129,1312.566162 
	C1409.217407,1315.476074 1433.159790,1313.554565 1456.967529,1311.603516 
	C1510.335693,1307.229736 1562.148193,1295.177368 1612.040405,1275.100464 
	C1660.609863,1255.555786 1705.980713,1230.234985 1746.794922,1197.742432 
	C1800.136108,1155.276855 1845.383423,1105.270264 1880.110840,1046.065063 
	C1908.089600,998.365173 1928.525146,947.806274 1940.960327,893.990845 
	C1946.137695,871.585144 1950.227905,849.021301 1952.187012,826.015930 
	C1953.946045,805.358459 1957.211426,784.679626 1955.720947,764.020142 
	C1953.841797,737.974548 1952.331299,711.920166 1948.454224,685.932251 
	C1942.546875,646.337585 1932.143433,608.035034 1917.603149,571.156494 
	C1897.723755,520.736755 1870.188110,474.259186 1835.970093,432.024231 
	C1772.953735,354.244019 1694.070435,298.054932 1600.901367,262.256714 
	C1564.593018,248.306000 1526.559814,239.556061 1487.980713,234.137589 
	C1461.498291,230.418121 1434.747803,229.367599 1408.000000,229.000000 
"/>
<path fill="none" opacity="1.000000" stroke="#000000" stroke-linecap="round" stroke-linejoin="round" stroke-width="10.000000"
	d="
M1695.000000,366.000000 
	C1680.872437,370.142822 1670.648071,378.604736 1663.887207,391.942841 
	C1653.361572,412.708405 1665.879517,437.255890 1692.005127,437.700531 
	C1701.114990,437.855591 1708.690796,431.657318 1714.981201,424.982239 
	C1729.570557,409.500580 1732.483276,392.518677 1720.966309,377.025055 
	C1714.798218,368.727234 1705.480225,367.059967 1696.000000,366.000000 
"/>
<path fill="none" opacity="1.000000" stroke="#000000" stroke-linecap="round" stroke-linejoin="round" stroke-width="3.000000"
	d="
M1400.000000,513.000000 
	C1379.853638,515.868164 1359.712158,518.252197 1339.938110,523.778625 
	C1307.867554,532.741699 1278.979980,547.815674 1253.150757,568.191101 
	C1215.028687,598.263733 1186.873047,636.232422 1170.104248,682.038147 
	C1161.502075,705.535950 1156.443237,729.736633 1154.715210,754.980530 
	C1150.319336,819.200623 1168.622559,876.257935 1207.143188,926.891113 
	C1244.300537,975.732483 1293.164917,1007.930359 1353.041870,1021.819580 
	C1419.264526,1037.180908 1481.894531,1027.938354 1541.145996,993.249451 
	C1587.859375,965.900940 1622.618530,928.320312 1645.861450,879.933472 
	C1656.915405,856.921509 1663.642944,832.509521 1667.276978,807.039490 
	C1670.236450,786.296326 1670.696045,765.494751 1668.624512,745.038025 
	C1663.896851,698.352234 1647.159424,655.928711 1619.098755,617.927124 
	C1591.458740,580.495544 1556.041870,552.889709 1513.906250,534.211548 
	C1478.148315,518.360657 1440.124634,512.154602 1401.000000,513.000000 
"/>
<path fill="none" opacity="1.000000" stroke="#000000" stroke-linecap="round" stroke-linejoin="round" stroke-width="6.000000"
	d="
M949.000000,852.000000 
	C936.448853,855.203918 929.039917,863.002930 930.000061,872.000000 
	C930.861755,880.074158 937.434814,888.010742 945.011414,888.902893 
	C957.504822,890.373962 967.284058,886.964905 971.979553,877.989319 
	C977.736938,866.983887 972.219971,855.795654 960.020996,852.911133 
	C956.654236,852.115051 953.360718,852.059387 950.000000,852.000000 
"/>
</svg>